<svg xmlns="http://www.w3.org/2000/svg" viewBox="0 0 1440 900" fill="none">
  <defs>
    <radialGradient id="cg" cx="70%" cy="50%" r="50%">
      <stop offset="0%" stop-color="#c8a84b" stop-opacity="0.06"/>
      <stop offset="100%" stop-color="#c8a84b" stop-opacity="0"/>
    </radialGradient>
  </defs>
  <rect width="1440" height="900" fill="url(#cg)"/>
  <!-- Topographic wave lines -->
  <path d="M0 120 Q180 80 360 140 Q540 200 720 130 Q900 60 1080 120 Q1260 180 1440 110" stroke="#c8a84b" stroke-opacity="0.1" stroke-width="1" fill="none"/>
  <path d="M0 200 Q200 150 400 220 Q600 290 800 210 Q1000 130 1200 200 Q1340 250 1440 190" stroke="#c8a84b" stroke-opacity="0.09" stroke-width="1" fill="none"/>
  <path d="M0 300 Q220 240 440 310 Q660 380 880 290 Q1100 200 1300 290 Q1380 330 1440 280" stroke="#c8a84b" stroke-opacity="0.08" stroke-width="0.75" fill="none"/>
  <path d="M0 420 Q240 350 480 420 Q720 490 960 380 Q1140 300 1320 390 Q1400 430 1440 380" stroke="#c8a84b" stroke-opacity="0.07" stroke-width="0.75" fill="none"/>
  <path d="M0 540 Q260 460 520 540 Q780 620 1040 500 Q1200 420 1360 510 Q1420 545 1440 520" stroke="#c8a84b" stroke-opacity="0.06" stroke-width="0.75" fill="none"/>
  <path d="M0 660 Q280 570 560 660 Q840 750 1120 620 Q1280 550 1400 630 Q1440 655 1440 660" stroke="#c8a84b" stroke-opacity="0.05" stroke-width="0.5" fill="none"/>
  <path d="M0 780 Q300 680 600 780 Q900 880 1200 740 Q1340 680 1440 760" stroke="#c8a84b" stroke-opacity="0.04" stroke-width="0.5" fill="none"/>
  <!-- Signal pulse dots on waves -->
  <circle cx="360" cy="140" r="3" fill="#c8a84b" fill-opacity="0.2"/>
  <circle cx="720" cy="130" r="3" fill="#c8a84b" fill-opacity="0.18"/>
  <circle cx="1080" cy="120" r="3" fill="#c8a84b" fill-opacity="0.16"/>
  <circle cx="800" cy="210" r="2.5" fill="#c8a84b" fill-opacity="0.14"/>
  <circle cx="440" cy="310" r="2.5" fill="#c8a84b" fill-opacity="0.13"/>
  <circle cx="960" cy="380" r="2" fill="#c8a84b" fill-opacity="0.12"/>
  <circle cx="480" cy="420" r="2" fill="#c8a84b" fill-opacity="0.11"/>
  <circle cx="1040" cy="500" r="2" fill="#c8a84b" fill-opacity="0.1"/>
  <!-- Vertical tick marks -->
  <line x1="360" y1="130" x2="360" y2="155" stroke="#c8a84b" stroke-opacity="0.12" stroke-width="0.75"/>
  <line x1="720" y1="120" x2="720" y2="145" stroke="#c8a84b" stroke-opacity="0.11" stroke-width="0.75"/>
  <line x1="1080" y1="110" x2="1080" y2="135" stroke="#c8a84b" stroke-opacity="0.1" stroke-width="0.75"/>
</svg>
