<svg xmlns="http://www.w3.org/2000/svg" viewBox="0 0 400 400">
  <defs>
    <radialGradient id="bg" cx="50%" cy="50%" r="70%">
      <stop offset="0%" stop-color="#111827"/>
      <stop offset="100%" stop-color="#030712"/>
    </radialGradient>
    <linearGradient id="g1" x1="0%" y1="0%" x2="100%" y2="100%">
      <stop offset="0%" stop-color="#00F0FF"/>
      <stop offset="100%" stop-color="#0072FF"/>
    </linearGradient>
    <linearGradient id="g2" x1="0%" y1="100%" x2="100%" y2="0%">
      <stop offset="0%" stop-color="#a855f7"/>
      <stop offset="100%" stop-color="#00F0FF"/>
    </linearGradient>
  </defs>
  <rect width="400" height="400" fill="url(#bg)" rx="80"/>
  <path d="M 130 110 L 170 110 A 40 40 0 0 1 170 190 L 130 190 Z" fill="none" stroke="url(#g1)" stroke-width="18" stroke-linejoin="round" stroke-linecap="round"/>
  <path d="M 130 110 L 130 270" fill="none" stroke="url(#g1)" stroke-width="18" stroke-linejoin="round" stroke-linecap="round"/>
  <rect x="165" y="145" width="14" height="14" fill="#00F0FF"/>
  <rect x="123" y="261" width="16" height="16" fill="#00F0FF"/>
  <path d="M 230 110 L 270 110 A 20 20 0 0 1 270 150 L 230 150 A 20 20 0 0 0 230 190 L 270 190 A 20 20 0 0 1 270 230 L 230 230" fill="none" stroke="url(#g2)" stroke-width="18" stroke-linejoin="round" stroke-linecap="round"/>
  <rect x="224" y="100" width="16" height="16" fill="#a855f7"/>
  <rect x="262" y="223" width="16" height="16" fill="#00F0FF"/>
  <rect x="190" y="190" width="20" height="20" rx="4" fill="#ffffff"/>
</svg>
