<svg xmlns="http://www.w3.org/2000/svg" viewBox="0 0 440 340" fill="none">
  <!-- Back frame (shadow) -->
  <rect x="60" y="60" width="280" height="180" rx="10" fill="rgba(13,27,46,0.04)" stroke="rgba(13,27,46,0.08)" stroke-width="1.2"/>
  <rect x="60" y="60" width="280" height="28" rx="10" fill="rgba(13,27,46,0.06)"/>
  <circle cx="78" cy="74" r="4" fill="rgba(255,92,86,0.6)"/>
  <circle cx="94" cy="74" r="4" fill="rgba(254,188,46,0.6)"/>
  <circle cx="110" cy="74" r="4" fill="rgba(40,200,64,0.6)"/>
  <rect x="72" y="100" width="256" height="12" rx="3" fill="rgba(13,27,46,0.07)"/>
  <rect x="72" y="120" width="200" height="10" rx="3" fill="rgba(13,27,46,0.05)"/>
  <rect x="72" y="138" width="220" height="10" rx="3" fill="rgba(13,27,46,0.05)"/>
  <rect x="72" y="156" width="180" height="10" rx="3" fill="rgba(13,27,46,0.04)"/>
  <rect x="72" y="176" width="256" height="48" rx="4" fill="rgba(200,168,75,0.06)" stroke="rgba(200,168,75,0.15)" stroke-width="1"/>

  <!-- Mid frame -->
  <rect x="80" y="96" width="280" height="180" rx="10" fill="white" stroke="rgba(13,27,46,0.1)" stroke-width="1.2"/>
  <rect x="80" y="96" width="280" height="28" rx="10" fill="rgba(13,27,46,0.05)"/>
  <circle cx="98" cy="110" r="4" fill="rgba(255,92,86,0.6)"/>
  <circle cx="114" cy="110" r="4" fill="rgba(254,188,46,0.6)"/>
  <circle cx="130" cy="110" r="4" fill="rgba(40,200,64,0.6)"/>
  <rect x="150" y="103" width="100" height="14" rx="7" fill="rgba(13,27,46,0.06)"/>
  <rect x="92" y="136" width="256" height="12" rx="3" fill="rgba(13,27,46,0.06)"/>
  <rect x="92" y="156" width="180" height="10" rx="3" fill="rgba(13,27,46,0.04)"/>
  <rect x="92" y="172" width="210" height="10" rx="3" fill="rgba(13,27,46,0.04)"/>
  <rect x="92" y="192" width="256" height="60" rx="6" fill="rgba(13,27,46,0.03)" stroke="rgba(13,27,46,0.07)" stroke-width="1"/>

  <!-- Front frame (highlighted) -->
  <rect x="100" y="132" width="280" height="180" rx="10" fill="white" stroke="#c8a84b" stroke-width="1.5"/>
  <rect x="100" y="132" width="280" height="28" rx="10" fill="rgba(200,168,75,0.08)"/>
  <circle cx="118" cy="146" r="4" fill="rgba(255,92,86,0.6)"/>
  <circle cx="134" cy="146" r="4" fill="rgba(254,188,46,0.6)"/>
  <circle cx="150" cy="146" r="4" fill="rgba(40,200,64,0.6)"/>
  <rect x="170" y="139" width="100" height="14" rx="7" fill="rgba(200,168,75,0.12)"/>
  <rect x="112" y="172" width="256" height="12" rx="3" fill="rgba(13,27,46,0.08)"/>
  <rect x="112" y="192" width="200" height="10" rx="3" fill="rgba(13,27,46,0.05)"/>
  <rect x="112" y="208" width="220" height="10" rx="3" fill="rgba(13,27,46,0.05)"/>
  <rect x="112" y="228" width="256" height="64" rx="6" fill="rgba(200,168,75,0.05)" stroke="rgba(200,168,75,0.2)" stroke-width="1"/>
  <text x="240" y="264" text-anchor="middle" font-family="DM Sans,sans-serif" font-size="10" fill="rgba(200,168,75,0.6)" font-weight="600" letter-spacing="0.08em">VIEW PROJECT →</text>
</svg>
